<?xml version="1.0" standalone="no"?>
<!DOCTYPE svg PUBLIC "-//W3C//DTD SVG 20010904//EN"
 "http://www.w3.org/TR/2001/REC-SVG-20010904/DTD/svg10.dtd">
<svg version="1.0" xmlns="http://www.w3.org/2000/svg"
 width="921.000000pt" height="911.000000pt" viewBox="0 0 921.000000 911.000000"
 preserveAspectRatio="xMidYMid meet">

<g transform="translate(0.000000,911.000000) scale(0.100000,-0.100000)"
fill="#000000" stroke="none">
<path d="M6286 8175 l-919 -925 -2126 2 -2126 3 -3 701 -2 700 -83 14 c-101
17 -262 18 -342 0 -261 -55 -480 -239 -644 -540 l-41 -75 0 -3012 c0 -1705 4
-3013 9 -3013 5 0 12 -24 15 -52 15 -110 140 -375 240 -509 83 -110 187 -208
300 -281 l91 -58 2339 0 c1286 0 2340 -1 2342 -3 2 -1 -246 -252 -551 -557
-305 -305 -555 -558 -555 -562 0 -5 1118 -8 2485 -8 l2485 0 0 2487 0 2487
-122 -119 c-68 -66 -224 -219 -348 -342 -123 -122 -225 -221 -226 -220 -2 2
12 1668 20 2410 l6 547 -642 0 -642 0 492 493 c271 272 492 499 492 505 0 21
-46 135 -88 217 -116 230 -301 410 -535 520 -105 50 -276 103 -351 110 l-51 4
-919 -924z m1086 709 c185 -58 320 -139 440 -262 80 -82 124 -145 181 -258
l36 -71 -182 -181 -182 -181 -160 131 c-88 71 -255 212 -372 311 l-212 182
177 178 c97 97 180 177 184 177 4 0 44 -12 90 -26z m-6442 -1141 c0 -768 15
-3327 24 -4165 l6 -458 -28 -6 c-222 -47 -475 -220 -665 -454 -33 -41 -64 -79
-69 -85 -4 -5 -8 1220 -8 2721 l0 2730 51 87 c58 96 155 207 228 261 116 85
231 124 374 125 l87 1 0 -757z m6115 546 c99 -85 260 -219 358 -299 97 -79
177 -146 177 -149 0 -4 -79 -85 -175 -181 -162 -162 -175 -173 -192 -158 -10
8 -94 77 -188 153 -93 76 -254 211 -357 299 l-188 161 177 177 c153 153 179
176 193 164 8 -7 96 -82 195 -167z m-395 -479 c80 -69 223 -188 318 -265 95
-76 171 -143 170 -147 -2 -3 -199 -204 -438 -445 -239 -241 -889 -896 -1444
-1456 -556 -559 -1014 -1017 -1018 -1017 -5 0 -43 33 -86 73 -43 39 -202 188
-355 330 -152 142 -277 261 -277 265 0 4 647 654 1437 1444 l1437 1437 55 -47
c31 -26 121 -103 201 -172z m1720 -2185 l0 -1464 -1460 -1463 c-803 -804
-1460 -1457 -1460 -1450 0 9 -517 12 -2385 12 l-2386 0 -57 36 c-77 50 -228
202 -289 294 -79 118 -144 261 -173 381 -11 42 -9 56 20 150 107 345 389 662
704 790 59 24 86 29 154 29 81 0 83 1 93 28 10 24 -1 2642 -15 3770 l-5 342
2042 0 2042 0 -947 -947 -947 -948 -192 -635 c-106 -349 -196 -641 -202 -647
-7 -10 -81 -13 -308 -13 l-299 0 0 -85 0 -85 1985 0 1985 0 0 85 0 85 -1452 0
c-818 0 -1448 4 -1443 9 6 4 217 90 470 191 349 138 466 188 483 208 38 44
248 257 1473 1492 641 646 1192 1203 1224 1238 l59 62 643 0 643 0 0 -1465z
m-4688 -882 c353 -329 390 -364 386 -367 -7 -6 -139 -46 -317 -97 -143 -40
-185 -48 -191 -38 -5 7 -11 43 -15 81 -8 78 1 74 -129 53 -49 -8 -90 -14 -91
-12 -1 1 6 88 15 192 14 156 23 210 51 302 19 62 37 113 41 113 3 0 116 -102
250 -227z m5348 -858 l0 -665 -245 0 -245 0 0 -80 0 -80 245 0 245 0 0 -245 0
-245 -245 0 -245 0 0 -80 0 -80 245 0 245 0 0 -240 0 -240 -245 0 -245 0 0
-80 0 -80 245 0 245 0 -2 -237 -3 -238 -243 -3 -243 -2 3 -78 3 -77 240 -1
240 -2 3 -476 2 -476 -2192 0 -2193 0 875 878 c1469 1474 3493 3492 3502 3492
4 0 8 -299 8 -665z"/>
<path d="M7313 1938 c-463 -463 -840 -844 -838 -847 2 -3 384 -5 849 -3 l846
2 0 845 c0 465 -3 845 -7 845 -4 0 -386 -379 -850 -842z m677 -131 l0 -544
-537 5 c-296 2 -539 5 -540 6 -4 4 1061 1076 1069 1076 4 0 8 -245 8 -543z"/>
</g>
</svg>
