<?xml version="1.0" standalone="no"?>
<!DOCTYPE svg PUBLIC "-//W3C//DTD SVG 20010904//EN"
 "http://www.w3.org/TR/2001/REC-SVG-20010904/DTD/svg10.dtd">
<svg version="1.0" xmlns="http://www.w3.org/2000/svg"
 width="1537.000000pt" height="836.000000pt" viewBox="0 0 1537.000000 836.000000"
 preserveAspectRatio="xMidYMid meet">

<g transform="translate(0.000000,836.000000) scale(0.100000,-0.100000)"
fill="#000000" stroke="none">
<path d="M3898 8345 c-43 -8 -234 -66 -425 -129 -493 -162 -739 -225 -991
-255 -131 -16 -380 -14 -487 3 -49 9 -90 14 -91 13 -1 -1 -63 -240 -138 -532
-74 -291 -178 -696 -230 -900 -52 -203 -147 -575 -211 -825 -64 -250 -134
-522 -155 -605 -51 -196 -179 -698 -565 -2205 -174 -679 -343 -1338 -375
-1465 -185 -717 -198 -775 -185 -775 11 0 13 -11 9 -47 -3 -27 -16 -151 -28
-276 l-22 -228 21 -4 c113 -24 641 -33 860 -15 588 48 1209 202 1807 446 l110
45 92 -54 c407 -243 799 -386 1168 -426 318 -35 938 24 1388 130 159 38 325
91 553 176 125 46 255 89 290 94 36 7 112 8 182 4 143 -8 228 -33 475 -137
605 -256 961 -302 1685 -218 512 60 1243 221 1472 325 60 27 115 45 136 45 22
0 158 -46 339 -114 602 -226 872 -305 1258 -370 404 -68 761 -47 1183 70 279
77 574 200 820 342 75 43 81 44 135 38 140 -15 310 -71 617 -201 338 -144 479
-187 663 -205 58 -5 107 -8 109 -6 2 1 -4 146 -13 321 -12 239 -13 320 -4 325
11 7 -89 392 -485 1885 -35 132 -170 643 -300 1135 -130 492 -276 1046 -325
1230 -49 184 -172 650 -274 1035 -388 1471 -497 1879 -499 1881 -1 1 -33 12
-72 24 -110 36 -218 94 -383 207 -273 186 -316 205 -465 204 -54 0 -106 -5
-115 -10 -9 -5 -37 -12 -62 -16 -52 -8 -341 -74 -740 -169 -848 -202 -1071
-219 -1328 -101 -90 42 -138 72 -287 178 -125 90 -202 132 -260 141 -52 9
-213 -23 -645 -125 -977 -233 -1310 -298 -1464 -286 -96 8 -210 67 -411 213
-268 194 -332 216 -471 170 -299 -101 -1150 -301 -1609 -377 -173 -29 -358
-31 -435 -5 -103 35 -213 100 -378 223 -172 129 -260 179 -327 187 -22 3 -75
-1 -117 -9z m-38 -207 c-1 -38 -120 -722 -128 -730 -13 -13 -260 -101 -412
-147 -258 -78 -641 -155 -1062 -212 l-167 -23 -3 -89 -3 -90 90 7 c233 18 654
88 907 151 143 36 386 108 508 150 56 20 105 34 108 31 3 -3 -31 -222 -74
-487 l-79 -482 -52 -23 c-100 -45 -409 -143 -573 -183 -221 -54 -443 -95 -755
-140 l-260 -37 -3 -92 c-3 -92 -3 -93 20 -88 13 3 55 8 93 11 446 40 1024 165
1404 304 47 17 86 31 88 31 1 0 0 -12 -3 -27 -2 -16 -45 -275 -94 -578 -50
-302 -93 -562 -96 -577 -5 -24 -18 -31 -127 -71 -397 -146 -800 -238 -1362
-312 -183 -24 -165 -11 -165 -115 0 -88 0 -90 23 -86 12 3 58 8 102 11 405 31
1012 165 1411 309 37 14 70 23 73 20 2 -2 -10 -93 -28 -202 -129 -788 -192
-1171 -197 -1194 -4 -23 -17 -31 -82 -56 -305 -116 -720 -223 -1157 -297 -165
-28 -523 -75 -569 -75 l-29 0 7 -61 c3 -34 6 -75 6 -92 l0 -30 111 7 c172 10
569 70 849 127 259 53 560 138 753 212 55 21 67 23 67 11 0 -15 -97 -614 -215
-1323 -35 -211 -68 -388 -73 -393 -15 -15 -203 -88 -367 -143 -536 -179 -1095
-255 -1779 -242 -164 3 -300 7 -302 9 -1 2 6 37 17 78 11 41 57 224 103 405
110 429 493 1925 556 2170 27 105 164 640 305 1190 141 550 340 1326 442 1725
102 399 222 869 268 1045 l81 320 195 1 c368 3 654 64 1299 279 173 57 318
104 323 105 4 0 7 -6 7 -12z m3166 -57 c261 -183 312 -216 397 -256 51 -24
108 -46 128 -50 66 -12 62 19 53 -448 l-9 -425 -150 119 c-82 65 -150 117
-151 116 -19 -20 -104 -131 -104 -137 0 -4 92 -80 205 -170 l205 -164 -6 -450
c-4 -248 -8 -452 -8 -453 -1 -1 -58 42 -127 97 -68 54 -128 99 -134 99 -5 0
-33 -30 -61 -66 l-52 -66 82 -66 c44 -36 130 -104 189 -151 l109 -85 -6 -100
c-3 -55 -7 -305 -8 -555 -1 -250 -5 -492 -8 -537 l-5 -83 -163 131 c-122 96
-167 127 -177 119 -6 -5 -33 -36 -58 -69 l-46 -58 225 -179 225 -179 -7 -680
c-3 -374 -8 -681 -9 -683 -2 -2 -85 62 -186 142 -100 80 -186 146 -190 146 -8
0 -109 -124 -109 -133 0 -3 109 -92 242 -198 l241 -193 -7 -785 c-4 -432 -9
-787 -10 -789 -7 -6 -215 48 -311 81 -174 60 -385 159 -520 245 l-59 38 2 79
c13 402 105 2849 157 4180 36 913 72 1833 80 2045 20 523 26 640 35 640 4 0
51 -31 106 -69z m2578 17 c6 -50 54 -639 59 -722 l2 -38 -125 -49 c-313 -124
-651 -209 -1090 -274 -259 -38 -265 -39 -265 -50 3 -60 19 -165 26 -165 35 0
384 45 509 66 264 44 569 130 860 244 99 38 100 38 104 17 3 -12 21 -227 41
-477 20 -250 38 -469 41 -486 5 -29 3 -31 -53 -53 -303 -119 -590 -179 -1181
-247 -177 -21 -327 -41 -333 -44 -7 -5 -7 -32 1 -91 6 -46 12 -85 13 -85 1 -1
29 2 62 7 33 4 175 19 315 34 509 51 736 97 1085 219 55 19 102 32 105 30 5
-6 98 -1103 99 -1171 l1 -42 -154 -50 c-323 -105 -770 -178 -1291 -211 -88 -6
-202 -13 -252 -16 l-93 -6 0 -90 0 -91 238 6 c505 12 1030 96 1440 229 68 22
126 38 128 35 3 -2 29 -301 59 -663 30 -362 57 -682 60 -710 l6 -52 -79 -30
c-375 -143 -900 -229 -1634 -267 l-128 -7 0 -89 0 -89 148 0 c497 0 1153 103
1585 249 82 28 119 36 122 28 3 -11 136 -1620 135 -1643 0 -6 -15 -14 -32 -18
-18 -4 -80 -29 -138 -56 -177 -83 -813 -260 -1168 -324 -319 -58 -457 -70
-767 -62 -148 3 -310 12 -360 20 -80 12 -85 14 -39 15 l51 1 7 548 c3 301 8
761 11 1022 6 529 9 837 30 2545 16 1354 22 1823 31 2405 l6 416 142 22 c237
38 476 91 1451 323 212 50 201 51 209 -13z m351 -63 c162 -119 333 -203 472
-232 43 -9 79 -17 81 -18 5 -4 103 -791 100 -813 -3 -20 -17 -11 -128 78 -69
55 -127 100 -130 100 -5 0 -88 -101 -103 -126 -5 -8 57 -63 190 -170 109 -86
201 -160 205 -163 4 -3 32 -206 62 -451 31 -245 57 -457 59 -471 3 -29 7 -31
-279 198 -50 40 -93 73 -96 73 -12 0 -108 -132 -103 -141 4 -5 120 -100 258
-210 139 -110 253 -204 255 -209 2 -4 38 -287 81 -629 l77 -620 -35 26 c-20
15 -90 70 -156 123 -66 53 -136 108 -156 123 l-37 28 -51 -65 c-28 -36 -51
-69 -51 -74 0 -4 115 -100 256 -212 140 -112 257 -207 259 -210 5 -8 176
-1362 173 -1365 -2 -1 -84 63 -183 142 -99 79 -192 153 -206 164 l-27 19 -56
-69 -56 -69 278 -222 c152 -122 280 -231 284 -243 8 -23 178 -1379 178 -1418
0 -19 -4 -20 -33 -15 -117 22 -964 304 -977 326 -3 5 -21 186 -38 402 -18 216
-66 798 -107 1293 -64 774 -133 1625 -300 3700 -19 237 -53 655 -74 930 -22
275 -43 524 -47 554 l-6 53 49 -33 c26 -18 80 -56 118 -84z m-5720 -15 c158
-118 303 -206 380 -231 22 -7 44 -16 49 -20 9 -8 -75 -729 -85 -729 -3 0 -54
38 -113 85 -59 47 -111 85 -116 85 -10 0 -110 -120 -110 -131 0 -4 72 -64 159
-134 153 -122 159 -129 155 -159 -2 -17 -29 -240 -60 -496 -30 -256 -56 -469
-57 -473 -1 -5 -71 46 -154 112 l-152 121 -57 -71 c-32 -40 -53 -74 -48 -78 5
-5 90 -72 189 -151 99 -78 184 -146 188 -150 6 -5 -115 -1070 -145 -1283 -2
-13 -38 11 -148 98 -80 63 -148 115 -152 115 -10 0 -108 -121 -107 -133 0 -7
71 -67 157 -135 86 -68 172 -135 190 -150 l32 -27 -29 -240 c-17 -132 -55
-454 -87 -715 -31 -261 -58 -477 -60 -479 -2 -2 -102 76 -224 173 -121 97
-225 176 -230 176 -4 0 -32 -30 -61 -66 l-53 -67 37 -31 c20 -17 143 -114 272
-216 l235 -185 -5 -45 c-3 -25 -25 -214 -50 -420 -25 -206 -66 -543 -90 -749
-25 -206 -47 -376 -49 -379 -16 -15 -335 72 -494 134 -112 44 -389 179 -424
206 -19 15 -70 -299 664 4116 268 1614 477 2842 483 2842 5 0 82 -54 170 -120z
m8250 98 c18 -78 135 -676 135 -693 0 -18 -19 -29 -117 -68 -157 -62 -212 -81
-378 -127 -241 -67 -593 -137 -870 -171 -55 -7 -103 -15 -108 -19 -4 -3 -2
-43 5 -88 9 -67 14 -82 29 -82 44 0 379 43 509 66 267 46 567 132 857 245 58
23 108 37 113 33 8 -9 214 -1034 208 -1039 -12 -8 -161 -63 -247 -91 -230 -74
-502 -124 -975 -179 -165 -19 -316 -37 -335 -41 l-33 -5 7 -67 c10 -105 14
-114 41 -108 12 3 134 17 271 31 354 36 535 61 722 101 152 33 445 121 546
164 l43 18 124 -626 125 -627 -50 -23 c-27 -12 -103 -41 -169 -63 -321 -107
-615 -158 -1188 -204 -107 -9 -195 -17 -197 -18 -1 -2 0 -42 4 -91 l6 -87 101
6 c624 39 1079 122 1459 268 49 19 69 23 72 14 2 -7 68 -334 145 -727 78 -393
144 -725 147 -737 6 -26 -9 -34 -203 -98 -226 -75 -533 -135 -889 -175 -204
-22 -576 -50 -677 -50 l-68 0 0 -90 0 -90 168 0 c500 0 1141 103 1578 254 54
18 106 37 115 40 14 6 37 -96 173 -784 86 -435 154 -795 151 -800 -4 -6 -12
-10 -19 -10 -7 0 -51 -23 -97 -51 -346 -211 -753 -365 -1124 -428 -253 -43
-435 -48 -665 -20 -122 14 -347 51 -359 58 -9 6 -255 1946 -526 4156 -58 473
-158 1292 -223 1820 l-118 960 55 7 c339 45 496 78 1166 239 319 77 498 117
532 118 16 1 24 -6 28 -21z m-5770 -90 c-3 -51 -10 -226 -16 -388 -5 -162 -13
-298 -17 -302 -11 -11 -227 -92 -362 -136 -261 -84 -588 -154 -982 -208 -104
-14 -128 -20 -128 -33 1 -25 20 -154 24 -158 7 -7 366 37 511 63 274 47 456
97 763 208 161 59 172 61 172 42 0 -12 -7 -226 -16 -476 -14 -377 -19 -457
-31 -467 -28 -22 -257 -100 -401 -137 -192 -50 -419 -87 -832 -136 -190 -23
-346 -43 -347 -43 0 -1 4 -42 10 -91 l10 -88 45 6 c25 3 178 20 341 36 475 48
722 97 1027 201 81 27 148 48 150 46 5 -4 -41 -1205 -46 -1210 -12 -12 -278
-102 -389 -133 -255 -70 -513 -109 -941 -145 -146 -12 -267 -23 -268 -25 -2
-1 -1 -42 3 -90 l8 -87 131 7 c510 26 988 109 1343 234 l111 39 -5 -101 c-2
-56 -15 -388 -28 -740 -13 -351 -27 -642 -32 -646 -15 -14 -166 -68 -289 -103
-358 -104 -904 -177 -1489 -200 l-60 -2 0 -90 0 -90 200 2 c509 6 1101 102
1533 247 l102 35 0 -42 c1 -23 -12 -385 -27 -804 l-27 -762 -61 -15 c-34 -8
-151 -53 -261 -100 -247 -104 -339 -137 -496 -175 -294 -72 -691 -119 -1278
-152 -172 -9 -350 -6 -350 6 0 2 25 209 55 462 104 864 126 1039 200 1658 41
341 144 1201 230 1910 85 710 170 1410 187 1558 20 166 36 267 43 267 7 0 12
40 13 113 2 61 25 296 53 521 27 225 49 412 49 416 0 4 46 10 103 13 176 11
538 77 977 178 225 52 643 158 720 183 75 24 72 27 65 -76z m6008 75 c18 -9
100 -62 182 -118 170 -116 234 -154 342 -201 l76 -33 164 -618 c90 -340 199
-753 243 -918 43 -165 172 -651 285 -1080 325 -1229 391 -1478 485 -1835 171
-645 512 -1937 567 -2148 31 -117 53 -215 50 -218 -12 -13 -239 60 -479 155
-289 113 -385 146 -518 175 l-94 21 -163 815 c-89 448 -163 823 -163 833 0 12
72 -41 226 -164 124 -99 227 -179 228 -177 1 1 20 26 42 53 22 28 45 58 52 67
12 15 -22 45 -295 263 -169 136 -311 256 -315 268 -9 26 -278 1392 -278 1409
0 6 12 0 28 -13 48 -45 300 -239 309 -239 8 1 103 122 103 133 0 3 -112 94
-249 202 l-249 197 -12 61 c-46 244 -202 1035 -205 1045 -7 18 4 11 133 -91
63 -49 115 -87 117 -85 30 30 104 132 100 138 -3 4 -89 74 -192 156 -104 81
-194 152 -201 159 -10 9 -186 864 -179 871 1 2 45 -31 97 -71 52 -41 98 -75
103 -75 6 0 99 113 105 129 1 4 -80 72 -180 152 l-183 145 -58 299 c-32 165
-61 312 -64 328 -6 32 -3 33 40 10z m1320 -7004 c140 -29 251 -65 526 -174
265 -104 365 -138 496 -164 l90 -18 6 -56 c4 -31 10 -136 14 -232 l7 -176 -39
6 c-71 13 -267 84 -483 176 -253 107 -433 169 -584 200 -135 27 -188 22 -276
-26 -469 -255 -836 -381 -1270 -437 -150 -19 -411 -14 -580 11 -401 61 -682
142 -1320 381 -324 121 -325 122 -400 118 -64 -3 -91 -11 -190 -55 -236 -105
-974 -265 -1465 -318 -201 -21 -404 -35 -521 -35 -313 0 -644 78 -1024 240
-192 82 -228 96 -340 127 -85 24 -112 27 -265 27 -196 1 -176 6 -488 -110
-125 -46 -292 -102 -370 -125 -338 -95 -759 -158 -1182 -175 -468 -19 -903
110 -1425 426 -87 52 -142 79 -155 77 -11 -3 -99 -37 -195 -77 -581 -238
-1192 -386 -1780 -431 -139 -10 -614 -9 -624 2 -1 2 5 81 15 174 10 94 18 175
18 180 1 7 156 10 443 10 454 0 547 5 848 46 398 55 779 154 1132 295 l136 55
110 -61 c448 -248 913 -365 1377 -346 516 21 1021 75 1325 143 218 48 310 80
723 252 153 63 155 63 267 -7 331 -206 645 -321 1050 -384 129 -20 183 -22
490 -22 327 0 355 1 525 27 413 63 1204 271 1393 366 149 75 122 76 423 -29
574 -201 847 -281 1144 -334 310 -55 523 -71 725 -56 467 36 961 195 1405 454
75 43 142 75 158 76 16 0 74 -9 130 -21z"/>
</g>
</svg>
