<?xml version="1.0" standalone="no"?>
<!DOCTYPE svg PUBLIC "-//W3C//DTD SVG 20010904//EN"
 "http://www.w3.org/TR/2001/REC-SVG-20010904/DTD/svg10.dtd">
<svg version="1.0" xmlns="http://www.w3.org/2000/svg"
 width="1215.000000pt" height="1109.000000pt" viewBox="0 0 1215.000000 1109.000000"
 preserveAspectRatio="xMidYMid meet">

<g transform="translate(0.000000,1109.000000) scale(0.100000,-0.100000)"
fill="#000000" stroke="none">
<path d="M87 11082 l-87 -3 2 -4722 3 -4722 138 -2 c89 -1 137 2 137 9 0 28
193 -28 325 -95 194 -97 334 -208 690 -546 394 -375 536 -494 751 -627 620
-384 1362 -401 1989 -47 229 130 394 254 800 602 415 357 581 476 799 574 303
136 612 146 903 31 284 -112 486 -255 1058 -745 132 -113 296 -249 365 -303
330 -258 604 -401 885 -462 120 -26 349 -24 482 4 215 46 430 142 655 291 201
134 306 221 733 605 422 381 625 531 850 629 154 67 216 79 408 77 l167 -1 0
4719 0 4719 -122 6 c-323 18 -452 -5 -680 -119 -225 -113 -401 -258 -863 -714
-472 -464 -619 -585 -860 -705 -164 -82 -280 -114 -436 -122 -199 -10 -392 34
-614 141 -240 115 -409 236 -910 654 -450 376 -654 524 -888 643 -271 138
-469 190 -722 190 -224 0 -413 -46 -640 -155 -255 -122 -471 -278 -921 -663
-494 -423 -645 -534 -892 -657 -419 -210 -814 -190 -1197 58 -146 96 -287 218
-590 516 -165 162 -345 334 -400 381 -346 298 -661 465 -1009 533 -139 28
-187 32 -309 28z m11781 -4314 l2 -4137 -57 -11 c-303 -61 -548 -161 -794
-325 -172 -116 -303 -229 -604 -525 -311 -306 -410 -395 -541 -488 -162 -116
-391 -214 -560 -241 -30 -4 -56 -6 -59 -3 -3 3 -5 1849 -5 4102 l0 4096 77 12
c159 25 362 109 533 220 202 131 330 243 740 647 474 467 628 592 862 699 123
57 295 98 383 92 20 -1 20 -9 23 -4138z m-11420 4086 c126 -33 255 -83 381
-150 233 -123 416 -272 814 -662 387 -380 502 -478 699 -599 164 -101 363
-174 516 -189 l62 -7 0 -4093 c0 -2252 -3 -4094 -7 -4094 -5 0 -44 9 -89 20
-220 52 -437 174 -674 376 -63 54 -266 247 -450 429 -184 182 -378 365 -431
407 -308 247 -575 356 -879 361 l-110 2 0 4118 0 4118 38 -7 c20 -4 79 -17
130 -30z m5835 -15 c257 -52 522 -190 855 -444 76 -57 268 -212 427 -345 451
-377 648 -518 893 -642 179 -91 425 -168 535 -168 18 0 41 -6 50 -12 16 -12
17 -267 15 -4108 l-3 -4095 -60 3 c-242 13 -489 130 -750 355 -60 52 -220 201
-355 332 -135 131 -301 285 -370 342 -462 387 -946 561 -1500 540 -556 -22
-979 -203 -1455 -621 -49 -43 -191 -174 -315 -291 -259 -245 -360 -332 -481
-415 -191 -131 -427 -219 -586 -220 l-53 0 0 4094 c0 3891 1 4095 18 4100 9 2
44 7 76 11 135 15 343 89 515 181 220 119 401 254 817 611 558 479 772 627
1065 736 209 79 452 99 662 56z m-5708 -8388 c148 -30 302 -99 445 -199 144
-101 290 -232 600 -538 466 -461 591 -563 849 -695 343 -174 742 -201 1075
-73 157 61 306 149 466 278 93 74 139 116 360 326 318 303 450 415 625 533
400 269 857 378 1340 322 306 -36 566 -131 825 -302 193 -128 309 -229 715
-623 340 -330 549 -477 806 -568 321 -113 704 -85 1047 78 228 109 380 230
772 615 162 160 342 330 400 379 188 158 395 283 605 366 69 27 327 100 356
100 6 0 8 -117 7 -317 l-3 -318 -60 -7 c-205 -26 -470 -150 -722 -340 -144
-108 -241 -191 -538 -458 -477 -429 -672 -575 -938 -700 -191 -90 -339 -124
-532 -124 -151 0 -208 9 -350 56 -273 92 -526 264 -1060 723 -469 404 -657
542 -914 670 -223 112 -407 158 -626 157 -223 0 -397 -43 -621 -152 -222 -108
-379 -224 -834 -614 -140 -120 -319 -266 -396 -325 -369 -277 -695 -413 -1055
-440 -413 -31 -785 71 -1150 315 -182 121 -300 224 -733 636 -401 382 -625
524 -952 608 l-41 10 -6 67 c-4 38 -7 182 -7 321 l0 252 78 0 c42 0 118 -9
167 -19z"/>
</g>
</svg>
