<?xml version="1.0" standalone="no"?>
<!DOCTYPE svg PUBLIC "-//W3C//DTD SVG 20010904//EN"
 "http://www.w3.org/TR/2001/REC-SVG-20010904/DTD/svg10.dtd">
<svg version="1.0" xmlns="http://www.w3.org/2000/svg"
 width="1203.000000pt" height="1072.000000pt" viewBox="0 0 1203.000000 1072.000000"
 preserveAspectRatio="xMidYMid meet">

<g transform="translate(0.000000,1072.000000) scale(0.100000,-0.100000)"
fill="#000000" stroke="none">
<path d="M7050 10585 l0 -135 -1052 0 c-1174 0 -1133 2 -1349 -70 -614 -204
-1167 -829 -1352 -1530 l-30 -115 -8 -845 c-5 -465 -10 -982 -11 -1150 l-3
-305 -75 -5 c-46 -4 -215 -42 -440 -100 -201 -51 -367 -95 -369 -97 -6 -5 31
-163 40 -169 4 -2 194 43 422 101 227 58 416 105 420 105 4 0 7 -7 7 -15 0
-12 15 -15 76 -15 l76 0 -6 -57 c-3 -32 -27 -380 -52 -773 -25 -393 -65 -1005
-88 -1360 l-42 -645 -94 0 c-88 0 -101 3 -164 34 -83 41 -173 124 -341 316
-185 211 -265 279 -384 327 -55 23 -65 23 -501 26 -245 2 -734 1 -1088 -3
l-642 -7 0 -90 0 -91 1072 4 1073 4 52 -27 c66 -35 158 -121 281 -262 138
-160 188 -211 270 -277 123 -99 231 -139 377 -139 l75 0 0 -27 c0 -16 -9 -154
-19 -308 -11 -154 -17 -282 -14 -285 2 -3 42 -7 88 -9 82 -3 84 -2 89 20 2 13
32 456 66 984 34 528 86 1331 116 1785 30 454 54 832 54 841 0 15 69 17 785
24 432 4 788 5 791 2 8 -7 5 27 159 -1977 75 -965 137 -1756 139 -1758 2 -2
43 0 90 4 70 5 86 10 86 23 0 9 -11 158 -25 331 -14 173 -25 331 -25 351 l0
36 1238 7 c1293 7 1420 4 1652 -35 369 -62 605 -189 695 -373 45 -92 61 -192
45 -283 -23 -133 -85 -216 -275 -368 -236 -189 -296 -271 -297 -410 -2 -350
424 -632 1262 -834 308 -75 731 -144 1079 -176 170 -15 576 -21 584 -7 3 4 2
44 -1 90 l-5 82 -216 0 c-651 0 -1564 177 -2064 400 -273 122 -416 247 -456
398 -25 94 10 144 215 308 79 63 168 143 198 177 65 72 119 169 141 253 20 76
20 240 0 319 -74 290 -338 489 -766 580 -293 62 -255 60 -1716 57 -733 -2
-1333 -1 -1333 2 0 2 -47 620 -105 1371 -58 752 -105 1382 -105 1401 0 34 0
34 47 34 25 0 116 -19 202 -41 292 -77 335 -88 338 -86 6 6 46 167 42 171 -2
1 -103 29 -224 60 -121 32 -235 62 -253 68 l-33 10 3 651 3 652 26 63 c45 105
90 171 179 262 92 94 163 146 278 204 126 64 154 67 594 65 216 -1 417 -4 446
-6 l52 -5 0 -89 0 -89 90 0 90 0 0 90 0 90 1465 0 1465 0 0 -95 0 -96 88 3 87
3 3 93 3 92 839 0 839 0 0 85 -1 85 -411 2 c-227 0 -423 2 -437 3 -14 2 -206
3 -427 4 l-403 1 0 890 0 890 845 0 845 0 0 91 0 92 -845 -7 -844 -6 -3 127
-3 128 -85 0 -85 0 -5 -125 -5 -125 -1462 -3 -1463 -2 0 135 0 135 -90 0 -90
0 0 -135z m3108 -1198 l2 -887 -1465 0 -1465 0 0 885 0 885 748 2 c411 2 1069
3 1462 3 l715 0 3 -888z m-3108 4 l0 -880 -487 -4 c-462 -3 -491 -4 -548 -24
-236 -81 -458 -250 -594 -452 -32 -49 -69 -115 -81 -147 -51 -137 -50 -126
-50 -806 0 -350 -3 -639 -7 -641 -9 -6 -1376 -10 -1653 -5 l-195 3 3 1110 c4
1039 5 1116 23 1203 123 612 643 1238 1200 1445 210 79 156 75 1337 76 l1052
1 0 -879z"/>
<path d="M5560 6009 c-31 -40 -49 -74 -44 -79 31 -30 218 -159 224 -155 20 13
101 138 94 144 -9 8 -137 101 -191 139 l-31 22 -52 -71z"/>
<path d="M3878 5093 c-36 -511 -64 -930 -62 -932 3 -3 43 -7 89 -10 l85 -6 5
30 c2 16 32 426 65 910 33 484 62 892 65 908 l5 27 -93 0 -93 0 -66 -927z"/>
<path d="M6680 5900 c0 -5 7 -10 15 -10 8 0 15 5 15 10 0 6 -7 10 -15 10 -8 0
-15 -4 -15 -10z"/>
<path d="M2351 5605 c-140 -101 -258 -188 -263 -193 -14 -14 90 -155 106 -144
6 5 125 91 264 191 185 134 252 188 247 199 -7 19 -88 131 -95 131 -3 1 -119
-82 -259 -184z"/>
<path d="M5895 5169 c-30 -42 -45 -73 -39 -77 6 -4 55 -40 110 -79 54 -40 104
-72 109 -72 14 2 105 131 99 140 -7 12 -213 159 -222 159 -5 0 -31 -32 -57
-71z"/>
<path d="M2807 4868 c-72 -115 -202 -383 -193 -397 6 -9 156 -75 160 -70 2 2
48 95 103 206 l99 201 -77 41 -78 42 -14 -23z"/>
<path d="M4590 3865 l0 -735 90 0 90 0 0 735 0 735 -90 0 -90 0 0 -735z"/>
<path d="M6354 2199 c-450 -460 -1271 -703 -2192 -650 -755 44 -1267 236
-1691 637 l-71 66 -65 -58 -66 -57 73 -75 c272 -276 653 -483 1088 -592 558
-139 1263 -145 1856 -15 390 86 774 258 1019 458 93 76 216 189 226 209 12 23
2 37 -72 99 l-46 38 -59 -60z"/>
<path d="M1423 1762 c-50 -64 -52 -68 -34 -82 733 -583 1144 -787 1716 -854
236 -28 549 -45 1081 -62 l211 -6 6 39 c4 21 7 61 7 89 l0 52 -152 6 c-84 3
-283 10 -443 16 -571 21 -891 59 -1109 132 -349 116 -652 298 -1163 697 -28
23 -55 41 -60 41 -4 -1 -32 -31 -60 -68z"/>
<path d="M7855 1224 c-165 -256 -399 -507 -589 -633 -194 -129 -403 -217 -669
-281 -346 -84 -662 -120 -1047 -121 -260 0 -391 8 -608 37 -67 10 -125 15
-127 12 -3 -3 -12 -40 -20 -83 -11 -58 -12 -80 -4 -86 13 -8 207 -34 374 -50
178 -17 619 -14 810 5 631 65 1054 191 1386 415 246 165 489 432 677 742 l22
36 -75 46 -75 47 -55 -86z"/>
</g>
</svg>
