<?xml version="1.0" standalone="no"?>
<!DOCTYPE svg PUBLIC "-//W3C//DTD SVG 20010904//EN"
 "http://www.w3.org/TR/2001/REC-SVG-20010904/DTD/svg10.dtd">
<svg version="1.0" xmlns="http://www.w3.org/2000/svg"
 width="709.000000pt" height="695.000000pt" viewBox="0 0 709.000000 695.000000"
 preserveAspectRatio="xMidYMid meet">

<g transform="translate(0.000000,695.000000) scale(0.100000,-0.100000)"
fill="#000000" stroke="none">
<path d="M561 6175 c-117 -427 -211 -778 -209 -781 3 -2 173 -50 379 -106 206
-56 376 -104 379 -106 3 -3 0 -6 -6 -9 -41 -15 -147 -88 -210 -146 -134 -124
-226 -270 -260 -413 -21 -90 -15 -356 11 -454 38 -141 100 -245 180 -300 37
-25 162 -69 314 -110 l43 -11 -60 -29 c-272 -128 -502 -417 -543 -682 -13 -84
-7 -314 11 -398 44 -207 139 -363 253 -415 18 -8 241 -76 497 -150 440 -128
769 -224 1155 -337 94 -27 207 -60 253 -74 l82 -25 0 -599 0 -599 -37 -6
c-109 -16 -178 -46 -346 -148 -64 -39 -132 -72 -171 -82 -96 -26 -152 -12
-376 95 -231 110 -307 134 -420 134 -110 -1 -202 -31 -370 -124 -285 -156
-321 -156 -648 6 -106 52 -212 102 -235 110 -59 21 -130 20 -175 -3 -36 -20
-37 -21 -40 -85 l-3 -66 73 -3 c69 -4 83 -9 278 -106 262 -130 316 -148 440
-148 113 0 169 16 303 87 250 132 276 143 362 146 100 5 154 -12 346 -109 345
-172 466 -170 761 12 122 76 187 101 258 101 81 0 126 -15 320 -107 245 -116
260 -120 410 -120 145 0 170 8 379 121 271 146 321 145 626 -11 288 -147 431
-145 722 11 274 146 326 146 621 -1 374 -185 433 -182 854 41 93 49 206 84
276 84 l42 0 0 80 0 80 -52 1 c-152 4 -198 -9 -423 -126 -290 -150 -316 -150
-620 0 -208 103 -274 125 -381 127 -115 2 -231 -35 -398 -126 -242 -132 -316
-132 -589 3 -89 44 -184 87 -210 96 -113 36 -233 36 -343 -1 -27 -9 -128 -57
-225 -106 -162 -83 -181 -91 -247 -96 l-72 -5 0 623 c0 494 3 621 13 617 11
-4 147 -44 902 -264 406 -118 472 -138 835 -258 215 -72 415 -132 470 -141
124 -23 368 -23 505 0 419 69 784 279 785 451 0 36 -30 88 -63 110 -38 24
-180 70 -503 160 -339 94 -457 135 -594 207 -288 150 -437 383 -486 762 -21
165 -19 157 -56 198 -32 35 -44 39 -298 108 -146 40 -267 74 -269 76 -6 5 -9
3 84 58 223 134 370 316 406 504 16 86 6 266 -21 362 -50 179 -162 349 -291
439 -72 51 -106 66 -218 98 l-65 18 67 33 c108 53 215 130 297 212 83 84 129
155 168 258 23 60 26 81 26 207 0 116 -3 154 -22 218 -62 215 -166 371 -314
470 -62 41 -112 59 -423 150 -121 36 -456 135 -745 220 -2407 712 -2931 867
-2933 867 -1 0 -98 -349 -216 -775z m481 508 c100 -29 127 -40 124 -53 -22
-78 -296 -1169 -296 -1178 0 -7 -3 -12 -7 -12 -14 1 -284 77 -288 82 -2 2 68
265 156 583 184 667 169 615 176 615 4 0 64 -17 135 -37z m634 -187 c305 -90
1504 -444 2547 -751 277 -82 509 -156 538 -172 217 -117 347 -512 242 -734
-61 -130 -235 -279 -414 -355 -44 -19 -87 -34 -96 -34 -8 0 -288 75 -622 166
-333 91 -1105 303 -1715 470 -610 167 -1110 305 -1112 307 -2 1 35 153 81 337
47 184 115 453 151 598 37 144 70 262 74 262 4 0 151 -42 326 -94z m503 -1687
c482 -132 1029 -283 1216 -334 187 -52 572 -157 855 -235 302 -83 532 -151
556 -165 64 -37 158 -145 198 -227 56 -113 79 -220 74 -343 -3 -96 -6 -108
-42 -179 -67 -132 -232 -269 -419 -347 l-78 -32 -72 20 c-40 11 -560 163
-1157 338 -597 174 -1374 402 -1728 505 -716 209 -678 193 -727 301 -53 120
-73 362 -39 480 33 113 131 252 236 335 74 58 193 119 242 123 5 1 404 -107
885 -240z m175 -1500 c561 -154 1233 -339 1491 -410 1141 -313 1339 -369 1346
-381 5 -7 9 -28 9 -47 0 -57 48 -276 80 -362 60 -165 144 -295 266 -408 168
-158 382 -255 829 -376 264 -72 445 -127 445 -136 0 -30 -195 -135 -343 -184
-175 -58 -291 -78 -472 -79 -213 -1 -266 11 -664 145 -179 60 -609 193 -956
294 -346 101 -814 238 -1040 304 -793 232 -2102 614 -2263 661 -145 42 -167
51 -202 85 -73 72 -115 204 -126 400 -9 155 6 239 61 350 96 192 255 336 448
406 29 10 56 18 61 19 4 0 468 -126 1030 -281z m871 -1794 l110 -32 3 -616 c1
-340 0 -617 -4 -617 -3 0 -60 26 -127 59 -67 32 -139 64 -159 72 l-38 13 0
592 0 593 53 -16 c28 -8 102 -30 162 -48z"/>
<path d="M1768 6165 c-96 -54 -56 -195 55 -195 94 1 141 102 80 170 -34 38
-93 49 -135 25z"/>
<path d="M2415 5977 c-39 -105 -53 -158 -42 -163 20 -7 548 -174 552 -174 9 0
55 164 48 170 -4 4 -111 40 -238 80 -337 107 -315 101 -320 87z"/>
<path d="M1528 4723 c-59 -37 -65 -108 -13 -160 33 -33 39 -35 80 -30 53 5 73
20 92 66 40 94 -69 179 -159 124z"/>
<path d="M2138 4465 l-25 -84 61 -20 c105 -34 979 -313 1024 -326 33 -10 44
-11 47 -2 34 109 48 157 44 160 -5 5 -1111 357 -1120 357 -3 0 -17 -38 -31
-85z"/>
<path d="M1533 3165 c-32 -32 -35 -40 -30 -76 14 -104 144 -133 198 -45 29 47
24 83 -15 122 -28 28 -42 34 -76 34 -35 0 -48 -6 -77 -35z"/>
<path d="M2205 3017 c-35 -110 -48 -157 -44 -161 6 -6 1665 -526 1678 -526 9
0 65 160 58 166 -1 1 -234 75 -517 164 -957 301 -1055 332 -1113 350 -42 13
-59 15 -62 7z"/>
</g>
</svg>
