<?xml version="1.0" standalone="no"?>
<!DOCTYPE svg PUBLIC "-//W3C//DTD SVG 20010904//EN"
 "http://www.w3.org/TR/2001/REC-SVG-20010904/DTD/svg10.dtd">
<svg version="1.0" xmlns="http://www.w3.org/2000/svg"
 width="1258.000000pt" height="1385.000000pt" viewBox="0 0 1258.000000 1385.000000"
 preserveAspectRatio="xMidYMid meet">

<g transform="translate(0.000000,1385.000000) scale(0.100000,-0.100000)"
fill="#000000" stroke="none">
<path d="M5995 13716 c-320 -150 -622 -296 -1040 -501 -874 -429 -1188 -579
-1595 -762 -1197 -539 -2134 -840 -3140 -1009 -113 -18 -209 -34 -214 -34 -5
0 -6 -742 -2 -1712 7 -2084 14 -2767 27 -2918 93 -1084 672 -2328 1656 -3564
298 -373 551 -655 923 -1026 967 -967 1983 -1683 2859 -2016 320 -122 653
-186 881 -169 378 27 817 187 1342 488 692 397 1394 952 2113 1672 366 365
645 676 947 1052 922 1150 1529 2323 1737 3360 76 377 94 608 86 1128 -6 452
-13 1354 -20 2590 -5 834 -9 1082 -18 1092 -2 1 -41 10 -88 18 -1355 251
-2608 668 -4119 1372 -523 244 -1292 640 -1882 969 -92 52 -174 94 -181 93 -6
0 -129 -55 -272 -123z m442 -170 c1118 -618 2098 -1088 3043 -1461 911 -359
1791 -625 2631 -796 l256 -52 7 -786 c3 -432 11 -1318 17 -1968 10 -1210 8
-1329 -27 -1588 -150 -1105 -796 -2401 -1821 -3654 -977 -1193 -2213 -2245
-3228 -2746 -485 -239 -850 -335 -1165 -305 -539 51 -1290 405 -2084 983 -889
648 -1780 1532 -2454 2438 -841 1131 -1320 2229 -1401 3209 -10 123 -37 4418
-27 4427 2 3 89 20 193 39 923 169 1785 443 2828 899 432 189 844 384 1830
867 626 307 1206 585 1226 587 3 1 83 -41 176 -93z"/>
<path d="M6155 12685 c-262 -123 -585 -280 -1080 -525 -934 -463 -1232 -603
-1665 -788 -777 -330 -1571 -567 -2238 -668 l-123 -19 6 -1660 c6 -1848 10
-2134 31 -2315 73 -630 313 -1280 733 -1990 220 -372 536 -812 847 -1181 256
-304 694 -755 969 -1000 889 -792 1737 -1293 2370 -1401 99 -17 147 -19 275
-15 200 7 350 40 580 129 1214 470 2865 2019 3772 3538 492 825 760 1568 818
2275 11 128 -2 2751 -16 3352 l-6 251 -97 17 c-150 26 -498 102 -692 151 -784
196 -1630 503 -2529 917 -438 202 -1244 619 -1725 892 -72 41 -137 75 -145 74
-8 0 -46 -15 -85 -34z m209 -234 c1726 -981 3354 -1632 4782 -1912 l112 -21 8
-1077 c5 -592 8 -1375 9 -1741 0 -587 -2 -679 -18 -785 -73 -494 -217 -946
-462 -1453 -483 -996 -1311 -2054 -2280 -2909 -767 -677 -1556 -1146 -2084
-1238 -97 -17 -278 -19 -371 -4 -963 153 -2504 1336 -3569 2739 -723 952
-1150 1902 -1231 2736 -5 56 -12 544 -15 1085 -3 541 -7 1360 -10 1820 l-5
837 97 17 c902 157 1844 485 2978 1035 116 56 260 126 320 155 61 29 322 158
580 287 611 304 1008 496 1029 497 5 1 63 -30 130 -68z"/>
<path d="M6095 11074 c-22 -2 -86 -11 -143 -20 -689 -104 -1264 -582 -1476
-1227 -102 -312 -113 -664 -30 -983 134 -518 514 -962 1014 -1185 l105 -47 -3
-1724 c-2 -1123 0 -1744 7 -1785 14 -91 55 -166 132 -248 139 -146 356 -259
576 -301 104 -19 291 -14 388 11 196 51 354 191 451 400 67 146 125 372 140
553 l7 82 -137 0 -136 0 0 260 0 259 138 3 137 3 3 343 2 342 -137 0 c-76 0
-143 4 -150 8 -9 6 -11 69 -6 265 l6 257 154 0 153 0 0 475 0 475 -175 0 -175
0 0 165 0 164 53 23 c564 238 978 755 1081 1348 77 443 -20 885 -282 1280 -94
142 -308 361 -452 462 -230 162 -513 276 -800 323 -94 15 -369 27 -445 19z
m306 -184 c227 -22 413 -76 614 -176 170 -84 295 -174 431 -309 232 -231 382
-509 446 -828 29 -145 32 -421 5 -565 -56 -301 -217 -613 -430 -830 -176 -179
-330 -279 -640 -415 -63 -28 -67 -50 -67 -334 0 -136 3 -265 6 -285 l7 -38
168 0 169 0 0 -295 0 -295 -155 0 -155 0 0 -162 c0 -90 -3 -288 -7 -440 l-6
-278 54 0 c30 0 98 -3 152 -7 l97 -6 -2 -161 -3 -161 -135 0 -135 0 -3 -443
-2 -442 125 0 c93 0 125 -3 125 -12 0 -7 -11 -60 -24 -118 -57 -253 -158 -422
-298 -503 -104 -61 -289 -83 -438 -53 -223 45 -458 189 -531 326 l-24 45 4
1765 c3 1350 1 1775 -8 1809 -15 52 -46 83 -102 100 -80 24 -315 151 -409 222
-121 91 -233 200 -322 314 -71 90 -161 236 -193 310 -74 171 -109 295 -130
452 -51 379 36 753 250 1078 332 503 953 795 1566 735z"/>
<path d="M6157 10085 c-129 -49 -211 -165 -210 -300 0 -87 24 -145 88 -214 65
-70 128 -96 235 -96 73 0 93 4 142 28 62 30 115 83 150 149 33 63 33 203 -1
268 -32 62 -86 117 -146 148 -62 32 -196 41 -258 17z"/>
<path d="M3640 4121 c-127 -67 -95 -239 50 -266 46 -8 112 17 145 56 99 119
-55 285 -195 210z"/>
<path d="M4242 3504 c-34 -31 -62 -59 -62 -63 0 -4 80 -86 178 -183 254 -253
463 -429 826 -693 146 -106 149 -108 165 -88 9 11 34 42 56 68 l40 48 -45 40
c-25 21 -158 124 -296 227 -139 104 -300 230 -358 280 -79 69 -314 291 -437
414 -3 3 -33 -19 -67 -50z"/>
</g>
</svg>
